<svg xmlns="http://www.w3.org/2000/svg" xmlns:xlink="http://www.w3.org/1999/xlink" viewBox="0 0 172.37 153.23"><defs><style>.cls-1{fill:url(#linear-gradient);}</style><linearGradient id="linear-gradient" x1="26.58" y1="2.74" x2="143.63" y2="166.6" gradientUnits="userSpaceOnUse"><stop offset="0" stop-color="#ffb83d"/><stop offset="1" stop-color="#1200fc"/></linearGradient></defs><title>Fichier 1</title><g id="Calque_2" data-name="Calque 2"><g id="OBJECTS"><path class="cls-1" d="M86.19,0A86.18,86.18,0,0,0,32,153.23L38,124.06C26,111.46,20.26,97.42,18.2,92.16A10.46,10.46,0,0,0,15,98.39a7.64,7.64,0,0,1-.87-4.52,8.22,8.22,0,0,1,9.13-7.07,8.39,8.39,0,0,1,5.2,2.54c-.42-.09-.84-.16-1.28-.21a11.4,11.4,0,0,0-5.6.82,73.26,73.26,0,0,0,44.6,35,74.35,74.35,0,0,0,39.6,0,73.26,73.26,0,0,0,44.6-35,11.4,11.4,0,0,0-5.6-.82c-.44.05-.86.12-1.28.21a8.39,8.39,0,0,1,5.2-2.54,8.22,8.22,0,0,1,9.13,7.07,7.64,7.64,0,0,1-.87,4.52,10.46,10.46,0,0,0-3.19-6.23,99.56,99.56,0,0,1-19.43,31.55l6,29.52A86.18,86.18,0,0,0,86.19,0Zm0,32.29c11.86,0,21.51,11.89,21.51,26.5H99.8c0-10.26-6.1-18.61-13.61-18.61S72.57,48.53,72.57,58.79h-7.9C64.67,44.18,74.32,32.29,86.19,32.29Zm18.55,86.88a70.74,70.74,0,0,1-37.5,0,69.1,69.1,0,0,1-26-13.53L49.9,63.17h72.58L131,105.35A69.08,69.08,0,0,1,104.74,119.17Z"/></g></g></svg>